<?xml version="1.0" encoding="UTF-8"?>
<!DOCTYPE svg PUBLIC "-//W3C//DTD SVG 1.1//EN" "http://www.w3.org/Graphics/SVG/1.1/DTD/svg11.dtd">
<svg version="1.1" xmlns="http://www.w3.org/2000/svg" xmlns:xlink="http://www.w3.org/1999/xlink" x="0" y="0" width="771.667" height="239.792" viewBox="0, 0, 771.667, 239.792">
   <g id="Layer_1" transform="translate(-14.552, -93.5)">
      <text transform="matrix(1, 0, 0, 1, 154.014, 268)">
         <tspan x="-29.681" y="3" font-family="Helvetica" font-size="12" fill="#000000">Hypothesis</tspan>
      </text>
      <text transform="matrix(1, 0, 0, 1, 94.265, 102.5)">
         <tspan x="-58.356" y="3" font-family="Helvetica" font-size="12" fill="#000000">Hypothesis Formation</tspan>
      </text>
      <text transform="matrix(1, 0, 0, 1, 741.403, 102.5)">
         <tspan x="-28.02" y="4" font-family="Helvetica" font-size="12" fill="#000000">Evaluation</tspan>
      </text>
      <text transform="matrix(1, 0, 0, 1, 435.789, 102.5)">
         <tspan x="-30.346" y="4" font-family="Helvetica" font-size="12" fill="#000000">Experiment</tspan>
      </text>
      <g>
         <path d="M102.683,219.167 L688.958,219.167" fill-opacity="0" stroke="#000000" stroke-width="1"/>
         <path d="M688.958,222.167 L696.958,219.167 L688.958,216.167 z" fill="#000000" fill-opacity="1" stroke="#000000" stroke-width="1" stroke-opacity="1"/>
      </g>
      <g>
         <g>
            <path d="M346.853,200.667 L416.955,200.667 C424.291,200.667 430.238,206.039 430.238,212.667 L430.238,224 C430.238,230.627 424.291,236 416.955,236 L346.853,236 C339.518,236 333.571,230.627 333.571,224 L333.571,212.667 C333.571,206.039 339.518,200.667 346.853,200.667 z" fill="#FFFFFF"/>
            <path d="M346.853,200.667 L416.955,200.667 C424.291,200.667 430.238,206.039 430.238,212.667 L430.238,224 C430.238,230.627 424.291,236 416.955,236 L346.853,236 C339.518,236 333.571,230.627 333.571,224 L333.571,212.667 C333.571,206.039 339.518,200.667 346.853,200.667 z" fill-opacity="0" stroke="#000000" stroke-width="1" stroke-miterlimit="2"/>
         </g>
         <text transform="matrix(1, 0, 0, 1, 381.404, 217.833)">
            <tspan x="-34.02" y="4" font-family="Helvetica" font-size="12" fill="#000000">Organization</tspan>
         </text>
      </g>
      <g>
         <g>
            <path d="M453.153,200.667 L523.254,200.667 C530.59,200.667 536.537,206.039 536.537,212.667 L536.537,224 C536.537,230.627 530.59,236 523.254,236 L453.153,236 C445.817,236 439.87,230.627 439.87,224 L439.87,212.667 C439.87,206.039 445.817,200.667 453.153,200.667 z" fill="#FFFFFF"/>
            <path d="M453.153,200.667 L523.254,200.667 C530.59,200.667 536.537,206.039 536.537,212.667 L536.537,224 C536.537,230.627 530.59,236 523.254,236 L453.153,236 C445.817,236 439.87,230.627 439.87,224 L439.87,212.667 C439.87,206.039 445.817,200.667 453.153,200.667 z" fill-opacity="0" stroke="#000000" stroke-width="1" stroke-miterlimit="2"/>
         </g>
         <text transform="matrix(1, 0, 0, 1, 487.703, 217.833)">
            <tspan x="-22.342" y="4" font-family="Helvetica" font-size="12" fill="#000000">Analysis</tspan>
         </text>
      </g>
      <g>
         <g>
            <path d="M559.452,200.667 L629.554,200.667 C636.889,200.667 642.836,206.039 642.836,212.667 L642.836,224 C642.836,230.627 636.889,236 629.554,236 L559.452,236 C552.116,236 546.169,230.627 546.169,224 L546.169,212.667 C546.169,206.039 552.116,200.667 559.452,200.667 z" fill="#FFFFFF"/>
            <path d="M559.452,200.667 L629.554,200.667 C636.889,200.667 642.836,206.039 642.836,212.667 L642.836,224 C642.836,230.627 636.889,236 629.554,236 L559.452,236 C552.116,236 546.169,230.627 546.169,224 L546.169,212.667 C546.169,206.039 552.116,200.667 559.452,200.667 z" fill-opacity="0" stroke="#000000" stroke-width="1" stroke-miterlimit="2"/>
         </g>
         <text transform="matrix(1, 0, 0, 1, 594.003, 217.833)">
            <tspan x="-40.693" y="4" font-family="Helvetica" font-size="12" fill="#000000">Representation</tspan>
         </text>
      </g>
      <g>
         <g>
            <path d="M240.554,200.667 L310.656,200.667 C317.992,200.667 323.938,206.039 323.938,212.667 L323.938,224 C323.938,230.627 317.992,236 310.656,236 L240.554,236 C233.218,236 227.272,230.627 227.272,224 L227.272,212.667 C227.272,206.039 233.218,200.667 240.554,200.667 z" fill="#FFFFFF"/>
            <path d="M240.554,200.667 L310.656,200.667 C317.992,200.667 323.938,206.039 323.938,212.667 L323.938,224 C323.938,230.627 317.992,236 310.656,236 L240.554,236 C233.218,236 227.272,230.627 227.272,224 L227.272,212.667 C227.272,206.039 233.218,200.667 240.554,200.667 z" fill-opacity="0" stroke="#000000" stroke-width="1" stroke-miterlimit="2"/>
         </g>
         <text transform="matrix(1, 0, 0, 1, 275.105, 217.833)">
            <tspan x="-29.016" y="4" font-family="Helvetica" font-size="12" fill="#000000">Acquisition</tspan>
         </text>
      </g>
      <path d="M227.942,254.833 L644.635,254.833" fill-opacity="0" stroke="#000000" stroke-width="1"/>
      <path d="M670.399,219.167 C670.399,238.865 658.059,254.833 642.836,254.833" fill-opacity="0" stroke="#000000" stroke-width="1"/>
      <g>
         <path d="M203.477,228.107 C206.543,243.478 217.33,254.833 230.167,254.833" fill-opacity="0" stroke="#000000" stroke-width="1"/>
         <path d="M206.462,227.815 L202.699,220.145 L200.491,228.399 z" fill="#000000" fill-opacity="1" stroke="#000000" stroke-width="1" stroke-opacity="1"/>
      </g>
      <g>
         <g>
            <path d="M122.181,182.833 L186.848,182.833 L186.848,255.5 L122.181,255.5 L122.181,182.833 z" fill="#AAAAAA"/>
            <path d="M122.181,182.833 L186.848,182.833 L186.848,255.5 L122.181,255.5 L122.181,182.833 z" fill-opacity="0" stroke="#000000" stroke-width="1"/>
         </g>
         <path d="M174.848,255.5 L186.848,243.5" fill-opacity="0" stroke="#000000" stroke-width="1"/>
      </g>
      <g>
         <g>
            <g>
               <path d="M32.475,246.625 L91.292,246.625 C98.533,246.625 104.403,251.998 104.403,258.625 L104.403,280.125 C104.403,286.752 98.533,292.125 91.292,292.125 L32.475,292.125 C25.234,292.125 19.364,286.752 19.364,280.125 L19.364,258.625 C19.364,251.998 25.234,246.625 32.475,246.625 z" fill="#FFFFFF"/>
               <path d="M32.475,246.625 L91.292,246.625 C98.533,246.625 104.403,251.998 104.403,258.625 L104.403,280.125 C104.403,286.752 98.533,292.125 91.292,292.125 L32.475,292.125 C25.234,292.125 19.364,286.752 19.364,280.125 L19.364,258.625 C19.364,251.998 25.234,246.625 32.475,246.625 z" fill-opacity="0" stroke="#000000" stroke-width="1"/>
            </g>
            <text transform="matrix(1, 0, 0, 1, 61.384, 268.875)">
               <tspan x="-35.35" y="3" font-family="Helvetica" font-size="12" fill="#000000">Observations</tspan>
            </text>
         </g>
         <g>
            <g>
               <path d="M32.475,146.208 L91.292,146.208 C98.533,146.208 104.403,151.581 104.403,158.208 L104.403,179.708 C104.403,186.336 98.533,191.708 91.292,191.708 L32.475,191.708 C25.234,191.708 19.364,186.336 19.364,179.708 L19.364,158.208 C19.364,151.581 25.234,146.208 32.475,146.208 z" fill="#FFFFFF"/>
               <path d="M32.475,146.208 L91.292,146.208 C98.533,146.208 104.403,151.581 104.403,158.208 L104.403,179.708 C104.403,186.336 98.533,191.708 91.292,191.708 L32.475,191.708 C25.234,191.708 19.364,186.336 19.364,179.708 L19.364,158.208 C19.364,151.581 25.234,146.208 32.475,146.208 z" fill-opacity="0" stroke="#000000" stroke-width="1"/>
            </g>
            <text transform="matrix(1, 0, 0, 1, 61.384, 168.458)">
               <tspan x="-12.674" y="-5.5" font-family="Helvetica" font-size="12" fill="#000000">Data</tspan>
               <tspan x="-25.014" y="9.5" font-family="Helvetica" font-size="12" fill="#000000">Sampling</tspan>
            </text>
         </g>
         <g>
            <path d="M30.098,246.625 C15.161,228.478 21.883,208.82 27.896,198.664" fill-opacity="0" stroke="#000000" stroke-width="1"/>
            <path d="M30.236,200.541 L32.902,192.423 L25.556,196.786 z" fill="#000000" fill-opacity="1" stroke="#000000" stroke-width="1" stroke-opacity="1"/>
         </g>
         <g>
            <path d="M99.321,239.137 C111.515,215.43 92.667,191.708 90.981,191.708" fill-opacity="0" stroke="#000000" stroke-width="1"/>
            <path d="M96.82,237.48 L94.901,245.805 L101.821,240.795 z" fill="#000000" fill-opacity="1" stroke="#000000" stroke-width="1" stroke-opacity="1"/>
         </g>
      </g>
      <g>
         <g>
            <path d="M709.792,245.792 L768.609,245.792 C775.85,245.792 781.72,251.164 781.72,257.792 L781.72,279.292 C781.72,285.919 775.85,291.292 768.609,291.292 L709.792,291.292 C702.551,291.292 696.681,285.919 696.681,279.292 L696.681,257.792 C696.681,251.164 702.551,245.792 709.792,245.792 z" fill="#FFFFFF"/>
            <path d="M709.792,245.792 L768.609,245.792 C775.85,245.792 781.72,251.164 781.72,257.792 L781.72,279.292 C781.72,285.919 775.85,291.292 768.609,291.292 L709.792,291.292 C702.551,291.292 696.681,285.919 696.681,279.292 L696.681,257.792 C696.681,251.164 702.551,245.792 709.792,245.792 z" fill-opacity="0" stroke="#000000" stroke-width="1"/>
         </g>
         <g>
            <path d="M709.792,145.375 L768.609,145.375 C775.85,145.375 781.72,150.748 781.72,157.375 L781.72,178.875 C781.72,185.502 775.85,190.875 768.609,190.875 L709.792,190.875 C702.551,190.875 696.681,185.502 696.681,178.875 L696.681,157.375 C696.681,150.748 702.551,145.375 709.792,145.375 z" fill="#FFFFFF"/>
            <path d="M709.792,145.375 L768.609,145.375 C775.85,145.375 781.72,150.748 781.72,157.375 L781.72,178.875 C781.72,185.502 775.85,190.875 768.609,190.875 L709.792,190.875 C702.551,190.875 696.681,185.502 696.681,178.875 L696.681,157.375 C696.681,150.748 702.551,145.375 709.792,145.375 z" fill-opacity="0" stroke="#000000" stroke-width="1"/>
         </g>
         <g>
            <path d="M707.414,245.792 C692.477,227.645 699.199,207.987 705.212,197.83" fill-opacity="0" stroke="#000000" stroke-width="1"/>
            <path d="M707.552,199.707 L710.218,191.59 L702.872,195.953 z" fill="#000000" fill-opacity="1" stroke="#000000" stroke-width="1" stroke-opacity="1"/>
         </g>
         <g>
            <path d="M776.637,238.304 C788.832,214.596 769.984,190.875 768.297,190.875" fill-opacity="0" stroke="#000000" stroke-width="1"/>
            <path d="M774.136,236.646 L772.217,244.972 L779.138,239.961 z" fill="#000000" fill-opacity="1" stroke="#000000" stroke-width="1" stroke-opacity="1"/>
         </g>
         <text transform="matrix(1, 0, 0, 1, 739.777, 167.625)">
            <tspan x="-28.02" y="4" font-family="Helvetica" font-size="12" fill="#000000">Evaluation</tspan>
         </text>
         <text transform="matrix(1, 0, 0, 1, 738.701, 268.042)">
            <tspan x="-24.343" y="4" font-family="Helvetica" font-size="12" fill="#000000">Outcome</tspan>
         </text>
      </g>
      <path d="M741.833,292.125 C741.833,311.823 729.493,327.792 714.27,327.792" fill-opacity="0" stroke="#000000" stroke-width="1"/>
      <g>
         <path d="M61.81,301.065 C64.876,316.437 75.663,327.792 88.5,327.792" fill-opacity="0" stroke="#000000" stroke-width="1"/>
         <path d="M64.796,300.774 L61.032,293.103 L58.824,301.357 z" fill="#000000" fill-opacity="1" stroke="#000000" stroke-width="1" stroke-opacity="1"/>
      </g>
      <path d="M88.558,327.792 L715.014,327.792" fill-opacity="0" stroke="#000000" stroke-width="1"/>
      <text transform="matrix(1, 0, 0, 1, 435.789, 268)">
         <tspan x="-64.368" y="4" font-family="Helvetica" font-size="12" fill="#000000">Implementation Iteration</tspan>
      </text>
      <g>
         <g>
            <path d="M724.602,195.667 L759.203,195.667 L759.203,241 L724.602,241 L724.602,195.667 z" fill="#AAAAAA"/>
            <path d="M724.602,195.667 L759.203,195.667 L759.203,241 L724.602,241 L724.602,195.667 z" fill-opacity="0" stroke="#000000" stroke-width="1"/>
         </g>
         <path d="M752.783,241 L759.203,233.514" fill-opacity="0" stroke="#000000" stroke-width="1"/>
      </g>
      <g>
         <g>
            <path d="M370.937,167.833 L392.872,167.833 L392.872,196.5 L370.937,196.5 L370.937,167.833 z" fill="#AAAAAA"/>
            <path d="M370.937,167.833 L392.872,167.833 L392.872,196.5 L370.937,196.5 L370.937,167.833 z" fill-opacity="0" stroke="#000000" stroke-width="1"/>
         </g>
         <path d="M388.801,196.5 L392.872,191.766" fill-opacity="0" stroke="#000000" stroke-width="1"/>
      </g>
      <g>
         <g>
            <path d="M478.722,167.833 L500.657,167.833 L500.657,196.5 L478.722,196.5 L478.722,167.833 z" fill="#AAAAAA"/>
            <path d="M478.722,167.833 L500.657,167.833 L500.657,196.5 L478.722,196.5 L478.722,167.833 z" fill-opacity="0" stroke="#000000" stroke-width="1"/>
         </g>
         <path d="M496.587,196.5 L500.657,191.766" fill-opacity="0" stroke="#000000" stroke-width="1"/>
      </g>
      <g>
         <g>
            <path d="M583.535,167.833 L605.47,167.833 L605.47,196.5 L583.535,196.5 L583.535,167.833 z" fill="#AAAAAA"/>
            <path d="M583.535,167.833 L605.47,167.833 L605.47,196.5 L583.535,196.5 L583.535,167.833 z" fill-opacity="0" stroke="#000000" stroke-width="1"/>
         </g>
         <path d="M601.4,196.5 L605.47,191.766" fill-opacity="0" stroke="#000000" stroke-width="1"/>
      </g>
      <g>
         <g>
            <path d="M267.565,167.833 L289.5,167.833 L289.5,196.5 L267.565,196.5 L267.565,167.833 z" fill="#AAAAAA"/>
            <path d="M267.565,167.833 L289.5,167.833 L289.5,196.5 L267.565,196.5 L267.565,167.833 z" fill-opacity="0" stroke="#000000" stroke-width="1"/>
         </g>
         <path d="M285.43,196.5 L289.5,191.766" fill-opacity="0" stroke="#000000" stroke-width="1"/>
      </g>
      <text transform="matrix(1, 0, 0, 1, 435.789, 143.833)">
         <tspan x="-34.351" y="4" font-family="Helvetica" font-size="12" fill="#000000">data artifacts</tspan>
      </text>
      <g>
         <path d="M416.167,152.333 L305.677,173.166" fill-opacity="0" stroke="#000000" stroke-width="1"/>
         <path d="M305.122,170.218 L297.816,174.648 L306.233,176.114 z" fill-opacity="0" stroke="#000000" stroke-width="1" stroke-opacity="1"/>
      </g>
      <g>
         <path d="M464.167,152.333 L567.343,173.061" fill-opacity="0" stroke="#000000" stroke-width="1"/>
         <path d="M566.752,176.002 L575.186,174.636 L567.934,170.119 z" fill-opacity="0" stroke="#000000" stroke-width="1" stroke-opacity="1"/>
      </g>
      <g>
         <path d="M426.167,152.333 L403.459,176.3" fill-opacity="0" stroke="#000000" stroke-width="1"/>
         <path d="M401.281,174.237 L397.956,182.107 L405.636,178.363 z" fill-opacity="0" stroke="#000000" stroke-width="1" stroke-opacity="1"/>
      </g>
      <g>
         <path d="M447.5,152.333 L469.246,176.183" fill-opacity="0" stroke="#000000" stroke-width="1"/>
         <path d="M467.029,178.204 L474.636,182.094 L471.462,174.161 z" fill-opacity="0" stroke="#000000" stroke-width="1" stroke-opacity="1"/>
      </g>
      <g>
         <path d="M158.5,103.5 L392.938,102.537" fill-opacity="0" stroke="#000000" stroke-width="1"/>
         <path d="M392.951,105.537 L400.938,102.504 L392.926,99.537 z" fill="#000000" fill-opacity="1" stroke="#000000" stroke-width="1" stroke-opacity="1"/>
      </g>
      <g>
         <path d="M471.64,102.5 L696.92,102.5" fill-opacity="0" stroke="#000000" stroke-width="1"/>
         <path d="M696.92,105.5 L704.92,102.5 L696.92,99.5 z" fill="#000000" fill-opacity="1" stroke="#000000" stroke-width="1" stroke-opacity="1"/>
      </g>
   </g>
</svg>
